<svg width="150" height="177" viewBox="0 0 150 177" fill="none" xmlns="http://www.w3.org/2000/svg">
<path d="M72.7328 117.946C98.0771 117.946 118.623 97.4001 118.623 72.0558C118.623 46.7114 98.0771 26.1658 72.7328 26.1658C47.3884 26.1658 26.8428 46.7114 26.8428 72.0558C26.8428 97.4001 47.3884 117.946 72.7328 117.946Z" fill="#231F20" stroke="#231F20" stroke-miterlimit="10"/>
<path d="M72.7327 106.016C91.4883 106.016 106.693 90.8113 106.693 72.0557C106.693 53.3001 91.4883 38.0957 72.7327 38.0957C53.9771 38.0957 38.7727 53.3001 38.7727 72.0557C38.7727 90.8113 53.9771 106.016 72.7327 106.016Z" fill="white" stroke="white" stroke-miterlimit="10"/>
<path d="M53.2929 101.137L53.2837 101.133C47.5519 98.6228 40.8704 101.234 38.3603 106.966L19.4942 150.046C16.9841 155.778 19.5958 162.46 25.3277 164.97L25.3368 164.974C31.0687 167.484 37.7501 164.872 40.2603 159.14L59.1263 116.06C61.6364 110.329 59.0247 103.647 53.2929 101.137Z" fill="#231F20"/>
<path d="M54.0767 164.854L54.0776 164.844C54.6632 158.614 50.0876 153.089 43.8577 152.504L13.4019 149.641C7.172 149.055 1.64692 153.631 1.06131 159.861L1.06037 159.871C0.47476 166.101 5.05038 171.626 11.2803 172.211L41.736 175.074C47.966 175.66 53.4911 171.084 54.0767 164.854Z" fill="#231F20"/>
<path d="M65.895 37.3719L65.905 37.3708C72.1258 36.6951 76.6209 31.1043 75.9451 24.8835L74.4655 11.2636C73.7897 5.04283 68.1989 0.547727 61.9781 1.22352L61.9682 1.2246C55.7474 1.90039 51.2523 7.49118 51.9281 13.712L53.4077 27.3318C54.0835 33.5526 59.6742 38.0477 65.895 37.3719Z" fill="#231F20"/>
<path d="M66.8957 144.591L66.8973 144.581C67.8859 138.402 63.6784 132.592 57.4996 131.603L43.9716 129.439C37.7928 128.45 31.9825 132.658 30.9939 138.837L30.9923 138.847C30.0038 145.025 34.2113 150.836 40.3901 151.824L53.918 153.989C60.0968 154.977 65.9071 150.77 66.8957 144.591Z" fill="#231F20"/>
<path d="M146.003 112.666L117.223 89.5257C110.123 83.8157 99.7927 90.2257 101.753 99.1257L106.843 122.256C107.813 126.676 111.733 129.826 116.263 129.826H139.943C149.053 129.836 153.093 118.376 145.993 112.666H146.003ZM131.503 121.566H119.803C117.563 121.566 115.633 120.006 115.153 117.816L112.633 106.386C111.663 101.986 116.773 98.8257 120.273 101.646L134.493 113.076C138.003 115.896 136.003 121.556 131.503 121.556V121.566Z" fill="#231F20"/>
<path d="M52.1026 83.0959C49.8126 74.2159 45.7826 58.6059 54.8226 50.5359C64.4026 41.9759 83.9726 46.1059 92.0326 57.6659C99.9626 69.0359 94.3626 84.1159 93.9726 84.1159C93.6326 84.1159 95.3426 72.5059 88.8526 61.8259C87.0626 58.8759 85.5626 57.5059 85.1826 57.1659C80.1926 52.6959 71.4526 50.2459 64.8626 53.9659C60.8026 56.2559 59.1126 60.0059 57.7526 63.0159C56.6026 65.5659 52.6226 74.3759 57.0026 82.6059C59.2026 86.7359 64.5226 92.6359 70.2126 91.6759C77.3926 90.4659 81.9626 78.8959 78.5526 71.6059C76.6226 67.4659 71.6426 63.6959 68.5226 64.9859C64.8526 66.4959 64.0226 74.8659 67.0426 77.9659C68.0326 78.9759 69.3526 79.3459 69.2426 79.6859C69.0726 80.2259 65.2526 80.3959 62.8726 78.4559C59.4426 75.6559 59.7426 69.0759 62.3926 64.9859C62.9326 64.1559 64.5126 61.7959 67.5426 60.8259C71.5926 59.5359 75.1626 61.7259 76.1126 62.3059C78.8926 64.0159 80.1726 66.3759 81.2526 68.4359C82.3126 70.4659 85.0426 75.6759 83.6926 82.3959C82.4226 88.7059 78.3526 92.3459 76.5826 93.8959C74.4626 95.7459 72.2926 97.6359 68.9926 98.0559C63.0126 98.8059 58.3926 94.0759 57.2426 92.9059C54.1826 89.7759 52.9126 86.2059 52.1126 83.1059L52.1026 83.0959Z" fill="#231F20"/>
</svg>
