<?xml version="1.0" encoding="UTF-8"?>
<svg id="Layer_2" data-name="Layer 2" xmlns="http://www.w3.org/2000/svg" viewBox="0 0 107.34 75.99">
  <defs>
    <style>
      .cls-1 {
        fill: #fff;
      }

      .cls-1, .cls-2 {
        stroke-width: 0px;
      }

      .cls-2 {
        fill: #be1e2d;
      }
    </style>
  </defs>
  <g id="Layer_6" data-name="Layer 6">
    <g>
      <path class="cls-2" d="M62.81,57.11l44.53,18.88-28.71-22.4,14.78-7.87-26.7-8.18c.49-1.29.77-2.68.77-4.12,0-4.91-3.1-9.15-7.6-11.19C59.13,16.07,58.01.12,55.77,0c-1.19-.06-3.09,4.37-6.22,21.58-5.4,1.66-9.3,6.33-9.3,11.84,0,1.41.27,2.75.73,4.02l-27.05,8.29,14.78,7.87L0,75.99l44.53-18.88-15.5-8.33,12.36-10.35c1.32,2.76,3.69,4.98,6.64,6.27.16,1.37.95,2.57,2.13,3.4h-.02c.16.98,1.6,9.48,3.5,9.48,1.78,0,3.23-7.47,3.93-9.4,0,0,0-.03,0-.05,0,0,0-.01,0-.03,1.17-.83,1.96-2.02,2.12-3.39,2.87-1.25,5.19-3.39,6.52-6.04l12.09,10.13-15.5,8.33Z"/>
      <ellipse class="cls-1" cx="48.2" cy="32.63" rx="2.3" ry="4.64"/>
      <ellipse class="cls-1" cx="59.86" cy="32.63" rx="2.3" ry="4.64"/>
    </g>
  </g>
</svg>