<?xml version="1.0" encoding="UTF-8"?>
<svg id="Layer_2" data-name="Layer 2" xmlns="http://www.w3.org/2000/svg" viewBox="0 0 111.58 70.58">
  <defs>
    <style>
      .cls-1 {
        fill: #ef4136;
      }

      .cls-1, .cls-2 {
        stroke-width: 0px;
      }

      .cls-2 {
        fill: #fff;
      }
    </style>
  </defs>
  <g id="Layer_5" data-name="Layer 5">
    <g>
      <rect class="cls-1" x="37.05" y="16.47" width="37.49" height="54.11" rx="8.49" ry="8.49"/>
      <path class="cls-1" d="M48.45,25.97L56.33.59c.25-.8,1.4-.78,1.61.04l6.5,25.38c.14.53-.26,1.04-.81,1.04h-14.37c-.56,0-.96-.54-.8-1.08Z"/>
      <polygon class="cls-1" points="37.05 40.44 31.34 43.27 34.19 33.98 5.59 9.91 0 24.29 27 37.4 25.86 51 37.05 43.17 37.05 40.44"/>
      <polygon class="cls-1" points="74.54 38.89 80.24 41.73 77.39 32.43 105.99 8.37 111.58 22.75 84.58 35.86 85.72 49.46 74.54 41.63 74.54 38.89"/>
      <ellipse class="cls-2" cx="63.21" cy="27.05" rx="5.64" ry="3.17" transform="translate(25.14 84.3) rotate(-79.55)"/>
      <ellipse class="cls-2" cx="49.18" cy="27.05" rx="3.17" ry="5.64" transform="translate(-4.09 9.37) rotate(-10.45)"/>
      <rect class="cls-2" x="54.96" y="37.59" width="1.66" height="20.52"/>
      <rect class="cls-2" x="37.05" y="35.94" width="37.49" height="1.66"/>
      <rect class="cls-2" x="37.05" y="58.11" width="37.49" height="1.66"/>
      <rect class="cls-2" x="50.19" y="58.94" width="12.5" height="1.66"/>
    </g>
  </g>
</svg>