<?xml version="1.0" encoding="UTF-8"?>
<svg id="Layer_2" data-name="Layer 2" xmlns="http://www.w3.org/2000/svg" viewBox="0 0 77.15 69.84">
  <defs>
    <style>
      .cls-1 {
        fill: #fff;
      }

      .cls-1, .cls-2, .cls-3 {
        stroke-width: 0px;
      }

      .cls-2 {
        fill: #009444;
      }

      .cls-3 {
        fill: #39b54a;
      }
    </style>
  </defs>
  <g id="Layer_7" data-name="Layer 7">
    <g>
      <path class="cls-3" d="M70.75,31.43c-2.58-3.68-5.51-6.24-7.87-7.95-.31-13.02-10.95-23.48-24.05-23.48S15.54,10.03,14.82,22.66c-2.44,1.7-5.63,4.37-8.42,8.34-1.32,1.88-9.9,14.09-4.79,22.5.17.28,2.8,4.46,7.54,5.15,8.14,1.18,16.17-8.89,14.6-12.93-1.26-3.25-8.39-1.79-10.05-5.75-1.03-2.45.65-5.53,2.27-7.78l.02-.59c3,9.08,11.26,15.76,21.17,16.44v.85c-5.94.8-10.47,4.9-10.47,9.84s4.63,9.14,10.67,9.87c.33.72,1.06,1.22,1.91,1.22s1.57-.5,1.91-1.22c6.04-.73,10.67-4.86,10.67-9.87s-4.53-9.05-10.47-9.84v-.92c9.11-.95,16.7-6.99,19.9-15.23,1.59,2.24,3.19,5.24,2.18,7.64-1.66,3.96-8.8,2.5-10.05,5.75-1.56,4.04,6.47,14.1,14.6,12.93,4.74-.68,7.37-4.87,7.54-5.15,5.12-8.41-3.47-20.63-4.79-22.5ZM38.84,40.63c-9.24,0-16.73-7.49-16.73-16.73S29.6,7.17,38.84,7.17s16.73,7.49,16.73,16.73-7.49,16.73-16.73,16.73Z"/>
      <circle class="cls-2" cx="44.55" cy="32.28" r="7.68"/>
      <circle class="cls-2" cx="42.13" cy="14.86" r="7.68"/>
      <ellipse class="cls-1" cx="34.26" cy="58.68" rx="2.26" ry="3.88" transform="translate(-16.6 13.62) rotate(-18.18)"/>
      <ellipse class="cls-1" cx="43.28" cy="58.68" rx="3.88" ry="2.26" transform="translate(-25.98 81.48) rotate(-71.82)"/>
      <circle class="cls-2" cx="30.42" cy="27.35" r="7.68"/>
      <path class="cls-3" d="M43.55,18.44l-7.13,2.6c-.41.15-.66.56-.63.99.46,5.65,4.44,5.48,5.95,5.21.35-.06.64-.31.75-.64l2.3-6.96c.25-.76-.49-1.47-1.24-1.2Z"/>
    </g>
  </g>
</svg>